<svg xmlns="http://www.w3.org/2000/svg" viewBox="0 0 252 283.676">
    <defs>
        <style>
            .cls-5{fill:#313860}.cls-6{fill:#fff}
        </style>
    </defs>
    <g id="cactus" transform="translate(-89.583 -386.172)">
        <circle id="Ellipse" cx="126" cy="126" r="126" fill="#fafafa" transform="translate(89.583 386.172)"/>
        <g id="cactus-2" transform="translate(133.569 488.857)">
            <path id="Path_543" fill="#9be09e" stroke="#313860" stroke-miterlimit="10" stroke-width="0.5px" d="M286.959 364.924c-4.56.055-15.735-.428-21.687-8.1-3.954-5.1-4.027-11.328-4.012-22.313.021-16.3 3.624-21.193-.4-27.895-2.556-4.254-7.714-8.455-12.692-7.738-6.943 1-10.079 11.076-10.986 13.989-3.15 10.123-.361 19.108 1.77 25.656 3.146 9.672 6.947 21.359 18.783 28.655 12.852 7.922 26.648 5.409 30.62 4.534" transform="translate(-233.048 -284.686)"/>
            <path id="Path_544" fill="#a2f2a8" stroke="#313860" stroke-miterlimit="10" stroke-width="0.5px" d="M559.233 307.876c-.147-1.04-3.489-23.582-12.065-24.559-3.874-.442-7.334 3.747-8.674 5.158-4.924 5.184-4.711 11.43-5.729 21.494-1.7 16.813-5.153 27.544-6.581 31.626-5.389 15.41-10.553 17.843-12.547 18.567a13.818 13.818 0 0 1-4.88.805c1.37-4.306 3.123-9.809 5.541-18.016 11.616-39.418 12.146-51.5 10.368-62.7-1.3-8.191-3.114-18.631-11.706-24.136l-.008-.006c-6.023-3.854-12.921-3.716-17.9-2.818a33.341 33.341 0 0 0-6.743 1.93c-3.937 1.679-14.123 7.088-22.819 33.4-6.016 18.2-7.569 35.064-7.281 58.644a484.348 484.348 0 0 0 5.929 69.565l12.045.225 16.8.314 7.2.134a197.289 197.289 0 0 1 3.565-37.766c.656-3.4 1.262-6.055 1.935-8.588a29.594 29.594 0 0 0 9.987 2.134c14.5.487 24.606-10.349 29.14-15.211 17.99-19.289 15.19-44.7 14.423-50.196z" transform="translate(-410.612 -247.937)"/>
            <path id="Path_545" fill="#9be09e" d="M637.905 356.187c11.616-39.418 12.146-51.5 10.368-62.7-1.3-8.191-3.114-18.631-11.706-24.136l-.008-.006a85.019 85.019 0 0 1 1.688 12.7c.9 16.057-3.132 26.775-8.407 44.029-8.262 27.016-14.478 47.351-16.119 65.75A122.587 122.587 0 0 0 616.6 430.6l7.2.134a197.281 197.281 0 0 1 3.565-37.766c2.353-12.2 4.052-14.751 10.545-36.786z" transform="translate(-534.422 -261.172)"/>
            <path id="Path_546" d="M616.191 234.893a.511.511 0 0 1-.376.635.477.477 0 0 1-.656-.339 54.075 54.075 0 0 1-1.269-6.367 56.06 56.06 0 0 1 2.3 6.071z" class="cls-5" transform="translate(-534.918 -228.822)"/>
            <path id="Path_547" d="M563.873 395.607a.511.511 0 0 1-.2.711.479.479 0 0 1-.722-.158 53.859 53.859 0 0 1-2.875-5.822 56.349 56.349 0 0 1 3.8 5.269z" class="cls-5" transform="translate(-491.961 -357.767)"/>
            <path id="Path_548" d="M664.029 279.144a.512.512 0 0 1-.523.523.48.48 0 0 1-.551-.492 53.939 53.939 0 0 1 .359-6.483 56.445 56.445 0 0 1 .715 6.452z" class="cls-5" transform="translate(-574.089 -263.845)"/>
            <path id="Path_549" d="M725.648 422.411a.511.511 0 0 1-.734.072.479.479 0 0 1-.114-.73 54 54 0 0 1 4.388-4.786 56.268 56.268 0 0 1-3.54 5.444z" class="cls-5" transform="translate(-623.369 -379.025)"/>
            <path id="Path_550" d="M689.909 572.271a.513.513 0 0 1-.725-.146.479.479 0 0 1 .105-.732 53.8 53.8 0 0 1 5.6-3.293 56.757 56.757 0 0 1-4.976 4.171z" class="cls-5" transform="translate(-594.936 -499.68)"/>
            <path id="Path_551" d="M657.5 733.154a.512.512 0 0 1-.7-.233.48.48 0 0 1 .194-.713 53.649 53.649 0 0 1 5.956-2.585 56.268 56.268 0 0 1-5.448 3.531z" class="cls-5" transform="translate(-569.111 -628.629)"/>
            <path id="Path_552" d="M615.017 954.259a.511.511 0 0 1-.25-.695.478.478 0 0 1 .68-.288 53.621 53.621 0 0 1 5.712 3.088 56.613 56.613 0 0 1-6.142-2.105z" class="cls-5" transform="translate(-535.583 -807.14)"/>
            <path id="Path_553" d="M510.763 546.393a.512.512 0 0 1-.022.737.479.479 0 0 1-.738.021 54.183 54.183 0 0 1-4.192-4.959 56.1 56.1 0 0 1 4.952 4.2z" class="cls-5" transform="translate(-448.638 -478.998)"/>
            <path id="Path_554" d="M501.5 720.518a.511.511 0 0 1 .14.725.477.477 0 0 1-.715.181 53.757 53.757 0 0 1-5.175-3.921 56.515 56.515 0 0 1 5.75 3.015z" class="cls-5" transform="translate(-440.609 -618.954)"/>
            <path id="Path_555" d="M497.02 940.7a.512.512 0 0 1 .677.3.479.479 0 0 1-.26.691 54.044 54.044 0 0 1-6.172 2.013 56.4 56.4 0 0 1 5.756-3z" class="cls-5" transform="translate(-437.026 -797.111)"/>
            <path id="Path_556" d="M709.359 236.366a.511.511 0 0 1-.661.329.479.479 0 0 1-.366-.64 54.032 54.032 0 0 1 2.4-6.035 55.973 55.973 0 0 1-1.37 6.346z" class="cls-5" transform="translate(-610.297 -229.778)"/>
            <path id="Path_557" d="M774.865 320.876a.512.512 0 0 1-.733.1.478.478 0 0 1-.142-.724 53.787 53.787 0 0 1 4.192-4.958 56.611 56.611 0 0 1-3.317 5.581z" class="cls-5" transform="translate(-662.65 -297.856)"/>
            <path id="Path_558" d="M788 437.145a.511.511 0 0 1-.71-.2.478.478 0 0 1 .16-.721 53.945 53.945 0 0 1 5.83-2.857 56.506 56.506 0 0 1-5.28 3.78z" class="cls-5" transform="translate(-673.278 -392.115)"/>
            <path id="Path_559" d="M764.8 574.758a.51.51 0 0 1-.629-.386.479.479 0 0 1 .349-.65 53.6 53.6 0 0 1 6.388-1.166 56.57 56.57 0 0 1-6.108 2.2z" class="cls-5" transform="translate(-654.88 -503.233)"/>
            <path id="Path_560" d="M732.818 697.183a.512.512 0 0 1-.552-.491.478.478 0 0 1 .458-.579 54 54 0 0 1 6.492-.037 56.346 56.346 0 0 1-6.4 1.107z" class="cls-5" transform="translate(-629.425 -601.787)"/>
            <path id="Path_561" d="M744 847.634a.51.51 0 0 1 .143-.724.478.478 0 0 1 .731.1 53.84 53.84 0 0 1 3.31 5.586 56.331 56.331 0 0 1-4.184-4.962z" class="cls-5" transform="translate(-638.72 -722.168)"/>
            <path id="Path_562" d="M869.127 789.863a.511.511 0 0 1-.258-.692.477.477 0 0 1 .675-.3 53.778 53.778 0 0 1 5.755 3 56.461 56.461 0 0 1-6.172-2.015z" class="cls-5" transform="translate(-738.445 -675.894)"/>
            <path id="Path_563" d="M940.128 671.366a.511.511 0 0 1-.7-.232.478.478 0 0 1 .193-.713 53.969 53.969 0 0 1 5.954-2.589 56.161 56.161 0 0 1-5.446 3.534z" class="cls-5" transform="translate(-794.746 -579.299)"/>
            <path id="Path_564" d="M957.057 518.8a.509.509 0 0 1-.732.093.479.479 0 0 1-.136-.726 53.863 53.863 0 0 1 4.246-4.912 56.279 56.279 0 0 1-3.378 5.544z" class="cls-5" transform="translate(-808.105 -455.897)"/>
            <path id="Path_565" d="M872.493 456.674a.511.511 0 0 1-.3.673.478.478 0 0 1-.689-.266 54.008 54.008 0 0 1-1.957-6.191 56.3 56.3 0 0 1 2.95 5.784z" class="cls-5" transform="translate(-739.019 -406.107)"/>
            <path id="Path_566" d="M910.982 545.127a.512.512 0 0 1-.7.232.479.479 0 0 1-.272-.686 54 54 0 0 1 3.221-5.637 56.6 56.6 0 0 1-2.247 6.091z" class="cls-5" transform="translate(-771.279 -476.478)"/>
            <path id="Path_567" d="M871.891 608.809a.511.511 0 0 1-.421.607.479.479 0 0 1-.629-.386 53.634 53.634 0 0 1-.8-6.445 56.526 56.526 0 0 1 1.851 6.224z" class="cls-5" transform="translate(-739.41 -527.212)"/>
            <path id="Path_568" d="M855.339 719a.513.513 0 0 1-.726-.136.479.479 0 0 1 .094-.733 53.844 53.844 0 0 1 5.548-3.374 56.188 56.188 0 0 1-4.916 4.243z" class="cls-5" transform="translate(-727 -616.765)"/>
            <path id="Path_569" d="M794.952 756.111a.511.511 0 0 1-.709.206.478.478 0 0 1-.246-.7 53.77 53.77 0 0 1 3.439-5.509 56.582 56.582 0 0 1-2.484 6z" class="cls-5" transform="translate(-678.655 -644.989)"/>
            <path id="Path_570" d="M933.333 420.281a.51.51 0 0 1-.732.092.477.477 0 0 1-.134-.725 53.743 53.743 0 0 1 4.245-4.913 56.476 56.476 0 0 1-3.379 5.546z" class="cls-5" transform="translate(-789.166 -377.244)"/>
            <path id="Path_571" d="M876.34 386.161a.511.511 0 0 1-.343.654.477.477 0 0 1-.671-.3 53.7 53.7 0 0 1-1.594-6.3 56.591 56.591 0 0 1 2.609 5.946z" class="cls-5" transform="translate(-742.362 -349.685)"/>
            <path id="Path_572" d="M819.172 468.231a.511.511 0 0 1-.126.728.478.478 0 0 1-.732-.084 53.8 53.8 0 0 1-3.452-5.5 56.25 56.25 0 0 1 4.31 4.856z" class="cls-5" transform="translate(-695.366 -416.075)"/>
            <path id="Path_573" d="M803.2 591.432a.511.511 0 0 1-.124.728.479.479 0 0 1-.734-.084 53.755 53.755 0 0 1-3.451-5.5 56.681 56.681 0 0 1 4.309 4.856z" class="cls-5" transform="translate(-682.618 -514.431)"/>
            <path id="Path_574" d="M761.348 722.62a.511.511 0 0 1-.126.727.478.478 0 0 1-.734-.083 53.773 53.773 0 0 1-3.45-5.5 56.655 56.655 0 0 1 4.31 4.856z" class="cls-5" transform="translate(-649.202 -619.164)"/>
            <path id="Path_575" d="M700.527 802.948a.512.512 0 0 1-.459-.578.479.479 0 0 1 .552-.491 53.717 53.717 0 0 1 6.4 1.1 56.388 56.388 0 0 1-6.493-.026z" class="cls-5" transform="translate(-603.721 -686.314)"/>
            <path id="Path_576" d="M673.561 917.314a.51.51 0 0 1-.458-.578.479.479 0 0 1 .551-.491 53.966 53.966 0 0 1 6.4 1.1 56.108 56.108 0 0 1-6.493-.026z" class="cls-5" transform="translate(-582.194 -777.617)"/>
            <path id="Path_577" d="M527.174 308.093a.51.51 0 0 1-.193.712.478.478 0 0 1-.722-.151 54.033 54.033 0 0 1-2.926-5.8 56.462 56.462 0 0 1 3.841 5.235z" class="cls-5" transform="translate(-462.627 -287.927)"/>
            <path id="Path_578" d="M469.223 434.681a.511.511 0 0 1 .044.737.48.48 0 0 1-.734.086 54.185 54.185 0 0 1-4.614-4.569 56.407 56.407 0 0 1 5.3 3.746z" class="cls-5" transform="translate(-415.194 -390.176)"/>
            <path id="Path_579" d="M440 579.148a.511.511 0 0 1 .182.715.478.478 0 0 1-.7.224 53.874 53.874 0 0 1-5.4-3.61 56.269 56.269 0 0 1 5.918 2.671z" class="cls-5" transform="translate(-391.371 -506.366)"/>
            <path id="Path_580" d="M414.607 591.864a.51.51 0 0 1-.437.595.477.477 0 0 1-.619-.4 53.8 53.8 0 0 1-.634-6.463 56.6 56.6 0 0 1 1.689 6.27z" class="cls-5" transform="translate(-374.468 -513.647)"/>
            <path id="Path_581" d="M358.884 484.919a.512.512 0 0 1-.734-.084.479.479 0 0 1 .042-.738 54.023 54.023 0 0 1 5.3-3.757 56.563 56.563 0 0 1-4.6 4.578z" class="cls-5" transform="translate(-330.633 -429.619)"/>
            <path id="Path_582" d="M366.152 356.165a.511.511 0 0 1-.547-.495.478.478 0 0 1 .463-.574 53.247 53.247 0 0 1 6.493.03 56.654 56.654 0 0 1-6.409 1.039z" class="cls-5" transform="translate(-336.704 -329.567)"/>
            <path id="Path_583" d="M305.6 276.854a.511.511 0 0 1-.611.415.479.479 0 0 1-.449-.587 53.706 53.706 0 0 1 1.563-6.3 56.573 56.573 0 0 1-.5 6.473z" class="cls-5" transform="translate(-287.947 -262)"/>
            <path id="Path_584" d="M232.46 337.03a.512.512 0 0 1-.061.737.479.479 0 0 1-.738-.019 53.925 53.925 0 0 1-3.92-5.177 56.34 56.34 0 0 1 4.719 4.46z" class="cls-5" transform="translate(-226.644 -311.648)"/>
            <path id="Path_585" d="M228.694 485.833a.51.51 0 0 1 .35.649.479.479 0 0 1-.628.389 53.747 53.747 0 0 1-6.113-2.187 56.3 56.3 0 0 1 6.391 1.15z" class="cls-5" transform="translate(-222.304 -433.082)"/>
            <path id="Path_586" d="M263.449 405.089a.509.509 0 0 1-.067.734.477.477 0 0 1-.737-.025 53.929 53.929 0 0 1-3.88-5.206 55.992 55.992 0 0 1 4.684 4.5z" class="cls-5" transform="translate(-251.411 -365.953)"/>
            <path id="Path_587" d="M320.965 356.18a.513.513 0 0 1-.7.235.48.48 0 0 1-.273-.686 53.888 53.888 0 0 1 3.206-5.646 56.274 56.274 0 0 1-2.232 6.1z" class="cls-5" transform="translate(-300.245 -325.629)"/>
            <path id="Path_588" d="M319.026 459.461a.511.511 0 0 1-.618.4.479.479 0 0 1-.439-.594 54.059 54.059 0 0 1 1.666-6.267 56.186 56.186 0 0 1-.609 6.465z" class="cls-5" transform="translate(-298.669 -407.789)"/>
            <path id="Path_589" d="M314.261 551.555a.512.512 0 0 1-.151.724.479.479 0 0 1-.731-.11 53.791 53.791 0 0 1-3.258-5.616 56.6 56.6 0 0 1 4.14 5z" class="cls-5" transform="translate(-292.41 -482.479)"/>
            <path id="Path_590" d="M270.532 586.051a.511.511 0 0 1 .622.4.479.479 0 0 1-.363.643 53.589 53.589 0 0 1-6.408 1.043 56.222 56.222 0 0 1 6.149-2.084z" class="cls-5" transform="translate(-255.898 -514)"/>
            <path id="Path_591" d="M364.353 652.976a.51.51 0 0 1 .737.032.477.477 0 0 1 .011.737 53.69 53.69 0 0 1-5.011 4.129 56.024 56.024 0 0 1 4.263-4.9z" class="cls-5" transform="translate(-332.303 -567.328)"/>
            <path id="Path_592" d="M433.809 744.673a.511.511 0 0 1 .346.652.479.479 0 0 1-.631.384 53.769 53.769 0 0 1-6.1-2.236 56.376 56.376 0 0 1 6.381 1.2z" class="cls-5" transform="translate(-386.062 -639.684)"/>
            <path id="Path_593" d="M442.525 898.135a.513.513 0 0 1 .451.586.479.479 0 0 1-.56.481 53.565 53.565 0 0 1-6.381-1.2 56.707 56.707 0 0 1 6.491.129z" class="cls-5" transform="translate(-392.933 -763.023)"/>
            <path id="Path_594" d="M558.607 499.591a4.807 4.807 0 1 1-4.389-5.193 4.807 4.807 0 0 1 4.389 5.193z" class="cls-5" transform="translate(-483.126 -440.829)"/>
            <path id="Path_595" d="M559.943 503.521a1.71 1.71 0 1 1-1.56-1.848 1.71 1.71 0 0 1 1.56 1.848z" class="cls-6" transform="translate(-489.129 -446.646)"/>
            <path id="Path_596" d="M648.082 507.108a4.807 4.807 0 1 1-4.387-5.192 4.807 4.807 0 0 1 4.387 5.192z" class="cls-5" transform="translate(-554.558 -446.83)"/>
            <path id="Path_597" d="M649.422 511.036a1.711 1.711 0 1 1-1.562-1.849 1.711 1.711 0 0 1 1.562 1.849z" class="cls-6" transform="translate(-560.563 -452.644)"/>
            <path id="Path_598" d="M569.092 575.189a17.435 17.435 0 0 1 2.016.387 8.011 8.011 0 0 1 4.8 2.863.652.652 0 0 1-1.061.758 6.777 6.777 0 0 0-4.059-2.357 16.9 16.9 0 0 0-13.851 2.611.652.652 0 0 1-.758-1.06 18.261 18.261 0 0 1 12.914-3.2z" class="cls-5" transform="translate(-488.631 -505.218)"/>
            <g id="Group_161" transform="translate(21.289 62.801)">
                <g id="Group_160">
                    <g id="Group_159">
                        <g id="Group_158">
                            <path id="Path_609" d="M2211.865 353.123a7.133 7.133 0 0 1 1.671-.409 12.42 12.42 0 0 1 2.043-.108c-2.052-21.282 5.054-39.965 17.189-46.146l.261-4.217c-14.666 5.95-23.526 26.988-21.163 50.881z" class="cls-5" transform="translate(-2205.092 -302.242)"/>
                            <path id="Path_611" fill="#eaeaea" d="M2188.3 500.054a10.14 10.14 0 1 0 10.33-11.724 11.7 11.7 0 0 0-1.919.1 6.666 6.666 0 0 0-1.569.384 10.148 10.148 0 0 0-6.842 11.238z" transform="translate(-2188.163 -438.593)"/>
                            <path id="Path_612" fill="#3ba5f4" d="M2203.2 510.276a6.037 6.037 0 1 0 5.028-6.909 6.041 6.041 0 0 0-5.028 6.909z" transform="translate(-2199.027 -449.462)"/>
                            <path id="Path_613" fill="#e2e2e2" d="M2207.424 513.19a4.876 4.876 0 1 0 4.06-5.571 4.881 4.881 0 0 0-4.06 5.571z" transform="translate(-2202.1 -452.558)"/>
                        </g>
                        <path id="Path_614" fill="#e6e2e2" d="M2429.308 492.613c-13.066-2.021-26.712 21.105-29.183 37.09-2.038 13.156 2.933 22.468 13.991 26.226l.718-2.1c-9.924-3.369-14.375-11.821-12.522-23.788 2.6-16.786 15.992-36.889 26.657-35.238 11.444 1.768 17.132 26.467 14.785 41.653a28.719 28.719 0 0 1-3.343 9.987c-3.12 5.542-8.58 8.755-15.776 8.9l.046 2.217c11.673-.241 19.23-7.616 21.263-20.771 2.47-15.985-3.557-42.156-16.638-44.178z" transform="translate(-2341.697 -440.338)"/>
                        <path id="Path_616" d="M2444.38 713.429c.49-1.132-.6-2.7-2.437-3.507a4.2 4.2 0 0 0-4.235.588c-.347.481.594 2.7 2.438 3.51s3.73.54 4.234-.591z" class="cls-5" transform="translate(-2369.25 -597.935)"/>
                        <path id="Path_617" d="M2481.535 719.605c-.13-1.232 1.386-2.4 3.385-2.607a4.2 4.2 0 0 1 3.859 1.835c.186.564-1.389 2.4-3.384 2.613s-3.725-.613-3.861-1.841z" class="cls-5" transform="translate(-2401.11 -603.29)"/>
                        <path id="Path_618" d="M2503.383 347.7a12.62 12.62 0 0 1-.4 1.674l-1.51 5.223a71.059 71.059 0 0 1 1.123 23.285 86.57 86.57 0 0 1-1.534 8.793 1.915 1.915 0 0 0 1.384 2.276c.074.022.156 0 .238.028a1.887 1.887 0 0 0 2.043-1.443c.665-3.026 1.2-6.129 1.585-9.27a71.81 71.81 0 0 0-2.927-30.565z" class="cls-5" transform="translate(-2415.257 -335.238)"/>
                    </g>
                </g>
                <path id="Path_615" d="M2451.148 491.4c-6.919-1.072-14.663 4.559-21.248 15.439a1.441 1.441 0 0 0 2.466 1.489c5.865-9.689 12.723-14.95 18.337-14.081 5.64.867 10.59 7.958 13.251 18.964a1.441 1.441 0 1 0 2.8-.678c-2.988-12.358-8.672-20.063-15.606-21.134z" class="cls-5" transform="translate(-2363.486 -439.456)"/>
            </g>
        </g>
    </g>
</svg>
