<svg xmlns="http://www.w3.org/2000/svg" viewBox="0 0 229 279.728">
  <g id="charecter" transform="translate(0 0)">
    <ellipse id="Ellipse" cx="114.5" cy="115" rx="114.5" ry="115" transform="translate(0 0)" fill="#f5f5f5"/>
    <g id="doctor_1" data-name="doctor 1" transform="translate(57.516 27.743)">
      <g id="Group_97" data-name="Group 97" transform="translate(14.715 112.959)">
        <rect id="Rectangle_24" data-name="Rectangle 24" width="12.695" height="12.868" transform="translate(23.917 108.687)" fill="#ffc99d" stroke="#2a3561" stroke-linecap="round" stroke-miterlimit="10" stroke-width="0.5"/>
        <rect id="Rectangle_25" data-name="Rectangle 25" width="12.695" height="12.868" transform="translate(48.037 108.687)" fill="#ffc99d" stroke="#2a3561" stroke-linecap="round" stroke-miterlimit="10" stroke-width="0.5"/>
        <path id="Path_333" data-name="Path 333" d="M88.618,150.79H43.58V258.32a3.9,3.9,0,0,0,3.871,3.924h14.1a3.9,3.9,0,0,0,3.871-3.924V162.23a2.627,2.627,0,0,1,2.608-2.646h0a2.627,2.627,0,0,1,2.608,2.646v96.09a3.9,3.9,0,0,0,3.871,3.924h14.1a3.9,3.9,0,0,0,3.871-3.924V150.79Z" transform="translate(-25.916 -150.79)" fill="#fff" stroke="#2a3561" stroke-miterlimit="10" stroke-width="0.5"/>
        <path id="Path_334" data-name="Path 334" d="M44,308.828H41.164s.6,4.465-1.112,5.953-19.971,9.779-19.971,9.779v4.254H57.264a4.648,4.648,0,0,0,4.487-5.682L58.579,308.82H56.692s-1.36,2.443-6.817,2.443S44,308.828,44,308.828Z" transform="translate(-20.08 -190.038)" fill="#37a7f4" stroke="#2a3561" stroke-miterlimit="10" stroke-width="0.5"/>
        <path id="Path_335" data-name="Path 335" d="M95.187,308.828H98.02s-.6,4.465,1.112,5.953,19.971,9.779,19.971,9.779v4.254H81.92a4.648,4.648,0,0,1-4.487-5.682L80.6,308.82h1.887s1.36,2.443,6.817,2.443S95.187,308.828,95.187,308.828Z" transform="translate(-34.296 -190.038)" fill="#37a7f4" stroke="#2a3561" stroke-miterlimit="10" stroke-width="0.5"/>
      </g>
      <rect id="Rectangle_26" data-name="Rectangle 26" width="42.528" height="6.9" transform="translate(35.851 108.111)" fill="#6bc6df" stroke="#2a3561" stroke-miterlimit="10" stroke-width="0.5"/>
      <rect id="Rectangle_27" data-name="Rectangle 27" width="43.738" height="65.43" transform="translate(35.25 44.944)" fill="#37a7f4" stroke="#2a3561" stroke-miterlimit="10" stroke-width="0.5"/>
      <line id="Line_49" data-name="Line 49" y2="29.359" transform="translate(56.664 81.015)" fill="none" stroke="#2a3561" stroke-miterlimit="10" stroke-width="0.5"/>
      <path id="Path_336" data-name="Path 336" d="M75.638,68.12H73.909L68.49,111.753l6.284,5.976,6.284-5.976Z" transform="translate(-17.388 -17.299)" fill="#31f4cf" stroke="#2a3561" stroke-miterlimit="10" stroke-width="0.5"/>
      <path id="Path_337" data-name="Path 337" d="M76.6,56.626H70.868a4.754,4.754,0,0,1-4.758-4.758v-9.6H81.353v9.6A4.759,4.759,0,0,1,76.6,56.626Z" transform="translate(-16.797 -10.879)" fill="#ffc99d" stroke="#2a3561" stroke-linecap="round" stroke-miterlimit="10" stroke-width="0.5"/>
      <path id="Path_338" data-name="Path 338" d="M66.62,47.72a13.986,13.986,0,0,0,7.253,4.472c4.968,1.368,7.6,0,7.6,0V47.72Z" transform="translate(-16.924 -12.232)" fill="#2a3561"/>
      <path id="Path_339" data-name="Path 339" d="M75.407,60.3a5.934,5.934,0,0,0-4.367,1.984,13.556,13.556,0,0,0,1.315,4.36,4.787,4.787,0,0,0,3.052,2.631,4.787,4.787,0,0,0,3.052-2.631,13.557,13.557,0,0,0,1.315-4.36A5.934,5.934,0,0,0,75.407,60.3Z" transform="translate(-18.021 -15.356)" fill="#31f4cf" stroke="#2a3561" stroke-miterlimit="10" stroke-width="0.5"/>
      <path id="Path_340" data-name="Path 340" d="M46.351,55.83s1.721,10.884-3.976,13.717l-6.013,97.608-3.48,6.622v13.484s-14.176-4.111-15.3-10.493c-.5-2.849,11.643-76.134,11.643-76.134L17.8,107.693l.323,9.952S11,119.8,6.476,117.216a9.538,9.538,0,0,1-1.947-1.526,14.342,14.342,0,0,1-2.5-16.453L26.936,63.73A11.813,11.813,0,0,1,32.881,59.2C36.339,57.98,46.351,55.83,46.351,55.83Z" transform="translate(-0.503 -14.246)" fill="#fff" stroke="#2a3561" stroke-miterlimit="10" stroke-width="0.5"/>
      <line id="Line_50" data-name="Line 50" y1="21.58" x2="5.111" transform="translate(29.342 54.715)" fill="#fff" stroke="#2a3561" stroke-miterlimit="10" stroke-width="0.5"/>
      <path id="Path_341" data-name="Path 341" d="M13.834,108.955,4.987,91.246a2.06,2.06,0,0,1,2.037-2.969l21.384,2.059a4.543,4.543,0,0,1,3.728,2.7l12.718,28.983a2.053,2.053,0,0,1-1.977,2.879l-19.2-.864a4.542,4.542,0,0,1-3.9-2.593Z" transform="translate(-1.562 -22.302)" fill="#37a7f4" stroke="#2a3561" stroke-miterlimit="10" stroke-width="0.5"/>
      <path id="Path_342" data-name="Path 342" d="M57.843,15.85A4.667,4.667,0,0,0,56.58,18.2v7.344h2.909V16.369Z" transform="translate(-14.43 -4.317)" fill="#2a3561" stroke="#2a3561" stroke-miterlimit="10" stroke-width="0.5"/>
      <path id="Path_343" data-name="Path 343" d="M72.315,5.46c-13.139,0-11.876,7.96-11.876,7.96V29.6c0,9.223,11.876,9.606,11.876,9.606s11.876-.376,11.876-9.606V13.42S85.454,5.46,72.315,5.46Z" transform="translate(-15.38 -1.736)" fill="#ffc99d" stroke="#2a3561" stroke-linecap="round" stroke-miterlimit="10" stroke-width="0.5"/>
      <path id="Path_344" data-name="Path 344" d="M59.336,24.81s-2.285-1.345-3.059,1.135c-1.015,3.24,3.059,6,3.059,6Z" transform="translate(-14.314 -6.452)" fill="#ffc99d" stroke="#2a3561" stroke-linecap="round" stroke-miterlimit="10" stroke-width="0.5"/>
      <path id="Path_345" data-name="Path 345" d="M92.09,24.81s2.285-1.345,3.059,1.135c1.015,3.24-3.059,6-3.059,6Z" transform="translate(-23.249 -6.452)" fill="#ffc99d" stroke="#2a3561" stroke-linecap="round" stroke-miterlimit="10" stroke-width="0.5"/>
      <path id="Path_346" data-name="Path 346" d="M23.22,114.529l5.848-2.661,10.215-4.728s2.586.323,3.615,2.052,1.345,6.419.489,7.764l-2.563,1.751a16.879,16.879,0,0,1,.571,3.48,19.842,19.842,0,0,1-4.262,2.1c-4.743,1.669-6.524,1.669-6.524,1.669l-6.945,1.458Z" transform="translate(-6.145 -26.99)" fill="#ffc99d" stroke="#2a3561" stroke-linecap="round" stroke-miterlimit="10" stroke-width="0.5"/>
      <path id="Path_347" data-name="Path 347" d="M7.74,115.963s8.306-3.721,9.6-3.773a4.008,4.008,0,0,1,2.48,1.075l.218,18.821" transform="translate(-2.3 -28.243)" fill="#fff" stroke="#2a3561" stroke-miterlimit="10" stroke-width="0.5"/>
      <path id="Path_348" data-name="Path 348" d="M58.938,14.377s-4.172-1.391-4.547-4.42,2.9-2.593,2.9-2.593a3.067,3.067,0,0,1,.316-3.345c1.33-1.488,4.044-.188,5.051,0S64.109,1.494,65.943.674,78.262,2.253,81.487,3.012,85.343,8.89,85.343,10.4v8.306a3.831,3.831,0,0,0-2.623.158V14.377A49.946,49.946,0,0,1,69.844,12.8c-6.66-1.894-8.133-4.1-8.133-4.1A7.139,7.139,0,0,0,58.938,14.377Z" transform="translate(-13.879 -0.506)" fill="#2a3561" stroke="#2a3561" stroke-miterlimit="10" stroke-width="0.5"/>
      <path id="Path_349" data-name="Path 349" d="M71.62,41.66s.887.887,3.473.887,3.412-.887,3.412-.887" transform="translate(-18.165 -10.727)" fill="#ffc99d" stroke="#2a3561" stroke-linecap="round" stroke-miterlimit="10" stroke-width="0.5"/>
      <line id="Line_51" data-name="Line 51" x1="8.043" y2="4.187" transform="translate(28.711 82.202)" fill="#ffc99d" stroke="#2a3561" stroke-linecap="round" stroke-miterlimit="10" stroke-width="0.5"/>
      <line id="Line_52" data-name="Line 52" x1="7.667" y2="3.848" transform="translate(30.026 86.118)" fill="#ffc99d" stroke="#2a3561" stroke-linecap="round" stroke-miterlimit="10" stroke-width="0.5"/>
      <line id="Line_53" data-name="Line 53" x1="6.261" y2="2.999" transform="translate(30.981 89.967)" fill="#ffc99d" stroke="#2a3561" stroke-linecap="round" stroke-miterlimit="10" stroke-width="0.5"/>
      <g id="Group_99" data-name="Group 99" transform="translate(68.687 41.584)">
        <path id="Path_350" data-name="Path 350" d="M92.1,55.83s-1.5,10.7,3.465,13.717l4.946,98.172,3.976,6.013v13.53s7.975-.241,14.131-8.133c1.781-2.285-6.344-49.864-6.344-49.864l-4-21.986,7.757-4.983-5.013-33.328c-1-5.141-3.743-9.749-8.832-11l-2.51-.579Z" transform="translate(-91.886 -55.83)" fill="#fff" stroke="#2a3561" stroke-miterlimit="10" stroke-width="0.5"/>
        <g id="Group_98" data-name="Group 98" transform="translate(33.774 29.99)">
          <path id="Path_351" data-name="Path 351" d="M169.524,101.375l-1.481-2.691-6.652,3.653,3.924-4.57-2.2-2.037L159.159,100l-6.765,3.721-.278-.2,1.127-4.8-2.811-.241-1.917,7.013-11.7,6.427,6.291,11.447,11.432-6.284.008.015,1.368-.752,16.138-8.862-1.556-2.841,2.195-1.2-1.608-2.939Z" transform="translate(-136.82 -95.73)" fill="#ffc99d" stroke="#2a3561" stroke-linecap="round" stroke-miterlimit="10" stroke-width="0.5"/>
          <line id="Line_54" data-name="Line 54" x1="8.802" y2="4.841" transform="translate(25.323 4.863)" fill="#ffc99d" stroke="#2a3561" stroke-linecap="round" stroke-miterlimit="10" stroke-width="0.5"/>
          <line id="Line_55" data-name="Line 55" x1="8.11" y2="4.457" transform="translate(26.901 8.118)" fill="#ffc99d" stroke="#2a3561" stroke-linecap="round" stroke-miterlimit="10" stroke-width="0.5"/>
          <path id="Path_352" data-name="Path 352" d="M157.47,106.33a5.786,5.786,0,0,1,3.969,2.533c1.188,2.157,2.45,4.457,2.45,4.457" transform="translate(-141.949 -98.363)" fill="#ffc99d" stroke="#2a3561" stroke-linecap="round" stroke-miterlimit="10" stroke-width="0.5"/>
          <line id="Line_56" data-name="Line 56" x1="1.571" y2="6.381" transform="translate(10.125 9.771)" fill="#ffc99d" stroke="#2a3561" stroke-linecap="round" stroke-miterlimit="10" stroke-width="0.5"/>
        </g>
        <path id="Path_353" data-name="Path 353" d="M105.359,58.66l1.706.4c5.254.94,6.4,7.907,7.118,10.606,1.473,5.449,8.065,31.824,8.065,31.824l9.478-3.179,6.284,18.2a3.56,3.56,0,0,1-2.232,4.54l-20.723,6.87-10.4-57.275" transform="translate(-95.058 -56.533)" fill="#fff" stroke="#2a3561" stroke-miterlimit="10" stroke-width="0.5"/>
      </g>
      <path id="Path_354" data-name="Path 354" d="M76.85,58.152V55.386s4.668.729,10.019-3.736l3.179,6.366s-2.255,4.044-8.929,2.751Z" transform="translate(-19.464 -13.208)" fill="#37a7f4" stroke="#2a3561" stroke-miterlimit="10" stroke-width="0.5"/>
      <path id="Path_355" data-name="Path 355" d="M71.889,58.152V55.386s-4.668.729-10.019-3.736L58.69,58.016s2.255,4.044,8.929,2.751Z" transform="translate(-14.954 -13.208)" fill="#37a7f4" stroke="#2a3561" stroke-miterlimit="10" stroke-width="0.5"/>
      <path id="Path_356" data-name="Path 356" d="M108.64,211.37s4.277,5.134,3.653,8.268a6.851,6.851,0,0,1-3.653,4.495Z" transform="translate(-27.36 -52.876)" fill="#2a3561"/>
      <path id="Path_357" data-name="Path 357" d="M42.342,211.37s-4.277,5.134-3.653,8.268a6.851,6.851,0,0,0,3.653,4.495Z" transform="translate(-9.971 -52.876)" fill="#2a3561"/>
      <path id="Path_358" data-name="Path 358" d="M13.5,88.757l1.924,4.427L28.07,94.432l-1.721-4.961a2.555,2.555,0,0,0-2.172-1.706l-9.313-.887A1.349,1.349,0,0,0,13.5,88.757Z" transform="translate(-3.703 -21.956)" fill="#31f4cf" stroke="#2a3561" stroke-miterlimit="10" stroke-width="0.5"/>
      <ellipse id="Ellipse_6" data-name="Ellipse 6" cx="1.233" cy="1.233" rx="1.233" ry="1.233" transform="translate(15.174 67.275)" fill="#2a3561"/>
      <line id="Line_57" data-name="Line 57" x1="4.51" y2="1.654" transform="translate(91.367 86.532)" fill="#fff" stroke="#2a3561" stroke-miterlimit="10" stroke-width="0.5"/>
      <path id="Path_359" data-name="Path 359" d="M76.026,24.45,73.38,32.214A1.655,1.655,0,0,0,74.951,34.4h2.24" transform="translate(-18.58 -6.453)" fill="#ffc99d" stroke="#2a3561" stroke-linecap="round" stroke-miterlimit="10" stroke-width="0.5"/>
      <path id="Path_360" data-name="Path 360" d="M101.3,57.89s3.976,1.533,3.728,7.043S98.41,94.45,98.41,94.45" transform="translate(-24.819 -14.758)" fill="#fff" stroke="#2a3561" stroke-miterlimit="10" stroke-width="0.5"/>
      <path id="Path_361" data-name="Path 361" d="M49.478,58.29s-4.269,1.233-4.021,6.742,6.614,29.517,6.614,29.517" transform="translate(-11.665 -14.857)" fill="#fff" stroke="#2a3561" stroke-miterlimit="10" stroke-width="0.5"/>
      <path id="Path_362" data-name="Path 362" d="M58.3,53.77l-5.5,1.1s-3.1.932-3.1,5.1v16.22h2.037V59.558s.03-2.044,1.218-2.676l4.81-1.052Z" transform="translate(-12.721 -13.735)" fill="#fff" stroke="#2a3561" stroke-miterlimit="10" stroke-width="0.5"/>
      <path id="Path_363" data-name="Path 363" d="M49.71,78.26h2.037v2.586H49.71V78.478" transform="translate(-12.724 -19.817)" fill="#2a3561"/>
      <path id="Path_364" data-name="Path 364" d="M91.67,53.77l5.5,1.1s3.1.932,3.1,5.1v16.22H98.232V59.558s-.03-2.044-1.218-2.676L92.2,55.829Z" transform="translate(-23.145 -13.735)" fill="#fff" stroke="#2a3561" stroke-miterlimit="10" stroke-width="0.5"/>
      <path id="Path_365" data-name="Path 365" d="M98.927,81.46s-4.427-.2-4.427,4.3v16.258h1.774V86.142A2.7,2.7,0,0,1,98.927,83Z" transform="translate(-23.848 -20.611)" fill="#fff" stroke="#2a3561" stroke-miterlimit="10" stroke-width="0.5"/>
      <path id="Path_366" data-name="Path 366" d="M103.1,81.46s4.427-.2,4.427,4.3v16.258h-1.774V86.142A2.7,2.7,0,0,0,103.1,83Z" transform="translate(-25.984 -20.611)" fill="#fff" stroke="#2a3561" stroke-miterlimit="10" stroke-width="0.5"/>
      <path id="Path_367" data-name="Path 367" d="M104.645,104.49v3.24H103.6v4.931h3.059a2.185,2.185,0,0,0,2.187-2.187V104.49Z" transform="translate(-26.108 -26.331)" fill="#31f4cf" stroke="#2a3561" stroke-miterlimit="10" stroke-width="0.5"/>
      <path id="Path_368" data-name="Path 368" d="M97.392,104.49v3.24h1.052v4.931H95.377a2.185,2.185,0,0,1-2.187-2.187V104.49Z" transform="translate(-23.523 -26.331)" fill="#31f4cf" stroke="#2a3561" stroke-miterlimit="10" stroke-width="0.5"/>
      <ellipse id="Ellipse_7" data-name="Ellipse 7" cx="4.142" cy="4.142" rx="4.142" ry="4.142" transform="translate(33.664 60.841)" fill="#31f4cf" stroke="#2a3561" stroke-miterlimit="10" stroke-width="0.5"/>
      <ellipse id="Ellipse_8" data-name="Ellipse 8" cx="2.533" cy="2.533" rx="2.533" ry="2.533" transform="translate(35.272 62.449)" fill="#31f4cf" stroke="#2a3561" stroke-miterlimit="10" stroke-width="0.5"/>
    </g>
  </g>
</svg>
