<svg xmlns="http://www.w3.org/2000/svg" viewBox="0 0 229 281.051">
  <g id="Group_196" data-name="Group 196" transform="translate(-2705 -4855)">
    <ellipse id="Ellipse" cx="114.5" cy="115" rx="114.5" ry="115" transform="translate(2705 4855)" fill="#f5f5f5"/>
    <g id="nurse" transform="translate(2765.97 4883.488)">
      <rect id="Rectangle_28" data-name="Rectangle 28" width="16.145" height="13.399" transform="translate(31.489 226.431)" fill="#ffc99d" stroke="#2a3561" stroke-linecap="round" stroke-miterlimit="10" stroke-width="0.5"/>
      <rect id="Rectangle_29" data-name="Rectangle 29" width="16.145" height="13.399" transform="translate(57.641 226.431)" fill="#ffc99d" stroke="#2a3561" stroke-linecap="round" stroke-miterlimit="10" stroke-width="0.5"/>
      <path id="Path_369" data-name="Path 369" d="M82.793,163.26H38.89V266.91a3.527,3.527,0,0,0,3.526,3.526H56.663a3.527,3.527,0,0,0,3.526-3.526V174.258a2.545,2.545,0,0,1,2.543-2.543h0a2.545,2.545,0,0,1,2.543,2.543v92.96a3.218,3.218,0,0,0,3.218,3.218H83.355a3.218,3.218,0,0,0,3.218-3.218V163.26Z" transform="translate(-10.087 -41.155)" fill="#2b5889" stroke="#2a3561" stroke-miterlimit="10" stroke-width="0.5"/>
      <path id="Path_370" data-name="Path 370" d="M38.8,214.15s-.09,8.057,0,8.147,21.351,0,21.351,0V214.15Z" transform="translate(-10.054 -53.866)" fill="#2a3561"/>
      <path id="Path_371" data-name="Path 371" d="M73.877,214.15s-.09,8.057,0,8.147,21.351,0,21.351,0V214.15Z" transform="translate(-18.816 -53.866)" fill="#2a3561"/>
      <path id="Path_372" data-name="Path 372" d="M99.5,102.6,83.828,63.965a12.24,12.24,0,0,0-7.3-7,5.4,5.4,0,0,0-2.678-.735H36.894a12.28,12.28,0,0,0-11.4,7.735L9.819,102.6a4.921,4.921,0,0,0,3.594,6.677l18.058,3.616V174.7H79.259v-62.1l16.632-3.331A4.922,4.922,0,0,0,99.5,102.6Z" transform="translate(-2.735 -14.42)" fill="#2b5889" stroke="#2a3561" stroke-miterlimit="10" stroke-width="0.5"/>
      <line id="Line_58" data-name="Line 58" y1="40.219" transform="translate(28.743 58.254)" fill="#0096c1" stroke="#2a3561" stroke-miterlimit="10" stroke-width="0.5"/>
      <path id="Path_373" data-name="Path 373" d="M113.28,127.52,116,146.5s.968,7.585-5.814,14.367-15.124,13.481-15.124,13.481l-7.157-15.5,10.961-8.673s3.549-3.031,3.338-5.342c-.315-3.361-2.431-14.967-2.431-14.967Z" transform="translate(-22.329 -32.227)" fill="#ffc99d" stroke="#2a3561" stroke-linecap="round" stroke-miterlimit="10" stroke-width="0.5"/>
      <line id="Line_59" data-name="Line 59" y1="40.219" transform="translate(76.472 58.254)" fill="#0096c1" stroke="#2a3561" stroke-miterlimit="10" stroke-width="0.5"/>
      <path id="Path_374" data-name="Path 374" d="M71.055,63.028H67.379a4,4,0,0,1-4-4V43.86H75.053V59.022A4,4,0,0,1,71.055,63.028Z" transform="translate(-16.204 -11.331)" fill="#ffc99d" stroke="#2a3561" stroke-linecap="round" stroke-miterlimit="10" stroke-width="0.5"/>
      <path id="Path_375" data-name="Path 375" d="M63.38,50.38s1.058,3.233,5.837,4.666,5.837.315,5.837.315V50.38Z" transform="translate(-16.204 -12.959)" fill="#2a3561"/>
      <path id="Path_376" data-name="Path 376" d="M66.867,4.32c-14.232,0-12.859,8.62-12.859,8.62V30.45c0,9.985,12.859,10.4,12.859,10.4s12.859-.413,12.859-10.4V12.94S81.1,4.32,66.867,4.32Z" transform="translate(-13.854 -1.454)" fill="#ffc99d" stroke="#2a3561" stroke-linecap="round" stroke-miterlimit="10" stroke-width="0.5"/>
      <path id="Path_377" data-name="Path 377" d="M76.622,98.71l-5.379,43.13a2.493,2.493,0,0,0,3.053,2.731l21.846-5.282a3.527,3.527,0,0,0,2.671-3L103.9,93.871a1.82,1.82,0,0,0-2.116-2.011L79.518,95.679A3.51,3.51,0,0,0,76.622,98.71Z" transform="translate(-18.163 -23.313)" fill="#fff" stroke="#2a3561" stroke-miterlimit="10" stroke-width="0.5"/>
      <path id="Path_378" data-name="Path 378" d="M81.1,119.07l4.681-8.65a7.923,7.923,0,0,1,5.259-4.126c3.826-.878,18.208-3.624,18.208-3.624a62.353,62.353,0,0,0-8.125,13.256c-2.753,6.122-3.811,15.95-4.134,19.783a2.194,2.194,0,0,1-1.711,1.958l-14.337,3.211a1.241,1.241,0,0,1-1.508-1.305Z" transform="translate(-20.214 -26.02)" fill="#fff" stroke="#2a3561" stroke-miterlimit="10" stroke-width="0.5"/>
      <path id="Path_379" data-name="Path 379" d="M74.7,129.082a2.362,2.362,0,0,0-1.936-2.176c1.508-2.311-.488-4.464-.488-4.464l-12,1.936V121.04l-7.18,7.66-20.8,4.231.323-3.856-15.522-3.106-2.926,14.877a7.41,7.41,0,0,0,8.98,8.643l26-6.144s16.5-1.373,18.388-2.4,2.048-3.714,2.048-3.714a5.789,5.789,0,0,0,2.048-1.455c.81-.968,0-3.443,0-3.443S74.862,131,74.7,129.082Z" transform="translate(-3.875 -30.609)" fill="#ffc99d" stroke="#2a3561" stroke-linecap="round" stroke-miterlimit="10" stroke-width="0.5"/>
      <path id="Path_380" data-name="Path 380" d="M62.5,9.428s4.284,4.741,16.37,4.741v2.438l2.723-.075a73.8,73.8,0,0,1-.938-9.843C80.659,2.5,74.049.5,65.287.5S51.37,4.229,51.37,7.425s-.81,9.94-.81,9.94h2.558V11.978S56.389,12.984,62.5,9.428Z" transform="translate(-13.002 -0.5)" fill="#2a3561" stroke="#2a3561" stroke-miterlimit="10" stroke-width="0.5"/>
      <path id="Path_381" data-name="Path 381" d="M96.741,311.379a2.785,2.785,0,0,0-3.226-2.258c-2.8.323-10.225,7-12.919,6.024s-3.766-4.411-4.734-4.411a1.888,1.888,0,0,0-2.048,1.433c-.105.938,0,15.9,0,15.9v1.831h49.3s2.258-3.444-.863-4.846-13.346-1.425-18.62-5.559S96.741,311.379,96.741,311.379Z" transform="translate(-18.799 -77.581)" fill="#fff" stroke="#2a3561" stroke-miterlimit="10" stroke-width="0.5"/>
      <path id="Path_382" data-name="Path 382" d="M27.657,311.379a2.785,2.785,0,0,1,3.226-2.258c2.8.323,10.225,7,12.919,6.024s3.766-4.411,4.734-4.411a1.888,1.888,0,0,1,2.048,1.433c.105.938,0,15.9,0,15.9v1.831H1.287s-2.258-3.444.863-4.846,13.346-1.425,18.62-5.559S27.657,311.379,27.657,311.379Z" transform="translate(-0.497 -77.581)" fill="#fff" stroke="#2a3561" stroke-miterlimit="10" stroke-width="0.5"/>
      <line id="Line_60" data-name="Line 60" x1="11.306" y2="2.438" transform="translate(17.114 102.33)" fill="#ffc99d" stroke="#2a3561" stroke-linecap="round" stroke-miterlimit="10" stroke-width="0.5"/>
      <line id="Line_61" data-name="Line 61" x1="9.07" y2="1.673" transform="translate(59.817 96.298)" fill="#ffc99d" stroke="#2a3561" stroke-linecap="round" stroke-miterlimit="10" stroke-width="0.5"/>
      <line id="Line_62" data-name="Line 62" x1="9.063" y2="1.665" transform="translate(59.142 101.497)" fill="#ffc99d" stroke="#2a3561" stroke-linecap="round" stroke-miterlimit="10" stroke-width="0.5"/>
      <line id="Line_63" data-name="Line 63" x1="9.07" y2="1.665" transform="translate(56.988 106.688)" fill="#ffc99d" stroke="#2a3561" stroke-linecap="round" stroke-miterlimit="10" stroke-width="0.5"/>
      <path id="Path_383" data-name="Path 383" d="M84.72,166.652l2.956-2.363a1.758,1.758,0,0,1,2.581.855l6.985,17.923a1.759,1.759,0,0,1-.518,2l-3.391,2.9" transform="translate(-21.535 -41.343)" fill="#37a7f4" stroke="#2a3561" stroke-miterlimit="10" stroke-width="0.5"/>
      <rect id="Rectangle_30" data-name="Rectangle 30" width="12.754" height="6.189" transform="translate(34.767 67.512)" fill="#37a7f4" stroke="#2a3561" stroke-miterlimit="10" stroke-width="0.5"/>
      <ellipse id="Ellipse_9" data-name="Ellipse 9" cx="2.183" cy="2.183" rx="2.183" ry="2.183" transform="translate(38.961 64.654)" fill="#37a7f4" stroke="#2a3561" stroke-miterlimit="10" stroke-width="0.5"/>
      <path id="Path_384" data-name="Path 384" d="M65.72,43.23s.96.96,3.766.96,3.691-.96,3.691-.96" transform="translate(-16.789 -11.173)" fill="#ffc99d" stroke="#2a3561" stroke-linecap="round" stroke-miterlimit="10" stroke-width="0.5"/>
      <path id="Path_385" data-name="Path 385" d="M88.35,22.848s2.476-1.463,3.316,1.23c1.1,3.511-3.316,6.5-3.316,6.5Z" transform="translate(-22.441 -5.983)" fill="#ffc99d" stroke="#2a3561" stroke-linecap="round" stroke-miterlimit="10" stroke-width="0.5"/>
      <path id="Path_386" data-name="Path 386" d="M52.807,22.848s-2.476-1.463-3.316,1.23c-1.1,3.511,3.316,6.5,3.316,6.5Z" transform="translate(-12.691 -5.983)" fill="#ffc99d" stroke="#2a3561" stroke-linecap="round" stroke-miterlimit="10" stroke-width="0.5"/>
      <path id="Path_387" data-name="Path 387" d="M69.841,25.94,67.2,33.69a1.651,1.651,0,0,0,1.568,2.183H71" transform="translate(-17.136 -6.854)" fill="#ffc99d" stroke="#2a3561" stroke-linecap="round" stroke-miterlimit="10" stroke-width="0.5"/>
    </g>
  </g>
</svg>
